<svg xmlns="http://www.w3.org/2000/svg" width="422.359" height="73.021" viewBox="0 0 111.749 19.32"><g style="stroke-width:26.01120377;stroke-miterlimit:4;stroke-dasharray:none"><path style="fill:none;stroke:#0c7cba;stroke-width:26.01120377;stroke-linecap:round;stroke-linejoin:round;stroke-miterlimit:4;stroke-dasharray:none;stroke-opacity:1;paint-order:normal" d="m416.653 281.495 119.148-53.182v150.143L416.653 425.76zM378.726 281.495l-119.147-53.182v150.143l119.147 47.305z" transform="matrix(.07487 0 0 .07487 28.12 -13.532)"/><path d="m277.49 193.808 120.364 52.356L517 193.808" style="fill:none;stroke:#0c7cba;stroke-width:26.01120377;stroke-linecap:round;stroke-linejoin:round;stroke-miterlimit:4;stroke-dasharray:none;stroke-opacity:1" transform="matrix(.07487 0 0 .07487 28.12 -13.532)"/><g aria-label="Docu" style="font-style:normal;font-weight:400;font-size:110.1140976px;line-height:1.25;font-family:sans-serif;letter-spacing:0;word-spacing:0;fill:#0c7cba;fill-opacity:1;stroke:none;stroke-width:71.60500336"><path d="M-189.856-16.493c43.782 0 71.941-28.982 71.941-73.174 0-40.287-24.254-72.764-71.94-72.764h-53.032v145.938zm43.37-73.174c0 27.543-15.415 48.303-43.37 48.303h-24.665v-96.196h24.665c27.543 0 43.37 19.733 43.37 47.893zM-55.87-14.437C-20.723-14.437.448-40.542.448-70.14c0-30.01-21.377-55.909-56.32-55.909s-56.525 25.899-56.525 55.909c0 29.598 21.377 55.703 56.525 55.703zM-84.03-70.14c0-18.705 12.332-32.477 28.16-32.477 15.826 0 28.159 13.566 28.159 32.271 0 18.91-12.333 32.476-28.16 32.476s-28.16-13.36-28.16-32.27zM4.265-70.346c0 29.804 21.994 55.909 56.937 55.909 23.637 0 41.52-11.716 48.92-27.955l-26.927-8.221C79.906-43.42 70.657-37.87 60.79-37.87c-15.415 0-28.16-13.566-28.16-32.476 0-19.116 12.333-32.27 28.16-32.27 9.25 0 17.472 4.521 21.994 12.332l26.927-8.222c-8.222-16.443-25.283-27.543-48.715-27.543-35.148 0-56.73 25.693-56.73 55.703zM151.96-14.437c18.294 0 33.71-7.4 43.577-22.2l.616 8.84c1.234 7.81 6.989 12.743 16.855 12.743 3.289 0 7.605-.411 13.36-1.439v-23.432c-5.55-.206-7.4-2.467-7.4-8.222v-76.052h-27.542v66.803c-6.372 13.154-17.06 19.526-27.955 19.526-11.716 0-17.882-8.427-17.882-24.87V-124.2h-27.543v67.42c0 27.748 11.716 42.342 33.915 42.342z" style="font-style:normal;font-variant:normal;font-weight:700;font-stretch:normal;font-size:205.54631042px;font-family:Raleway;-inkscape-font-specification:'Raleway Bold';letter-spacing:-7.79057169px;fill:#0c7cba;fill-opacity:1;stroke-width:71.60500336" transform="translate(23.344 17.101) scale(.09611)"/></g><g aria-label="matt" style="font-style:normal;font-weight:400;font-size:110.1140976px;line-height:1.25;font-family:sans-serif;letter-spacing:0;word-spacing:0;fill:#0c7cba;fill-opacity:1;stroke:none;stroke-width:71.60500336;stroke-miterlimit:4;stroke-dasharray:none"><path d="M659.944-85.35c0-20.761-5.755-42.343-32.27-42.343-17.06 0-31.038 8.016-39.67 22.815-2.878-12.744-12.54-22.815-30.422-22.815-17.677 0-32.065 7.81-40.081 21.788v-19.938H492.63v107.706h27.543v-62.897c4.11-13.36 15.005-22.405 25.693-22.405 10.278 0 16.65 7.605 16.65 24.871v60.43h27.543v-62.69c4.11-13.361 14.799-22.61 25.487-22.61 10.483 0 16.855 7.81 16.855 24.87v60.43h27.543zM705.532-16.082c15.621 0 29.804-6.783 39.465-19.321l.616 5.96c1.439 7.606 6.783 12.54 17.06 12.745 3.29 0 8.017-.411 13.155-1.44v-23.431c-5.344-.206-7.4-2.467-7.4-8.222v-33.504c0-28.571-18.087-44.398-48.92-44.398-16.032 0-30.831 4.522-44.808 13.771l8.427 17.472c11.51-8.017 22.2-12.128 33.71-12.128 15.827 0 24.049 8.017 24.049 22.2v6.166c-6.989-3.083-16.65-4.728-26.31-4.728-26.927 0-45.837 14.183-45.837 34.738 0 19.527 15.827 34.12 36.793 34.12zm7.81-20.143c-10.482 0-18.499-6.989-18.499-16.238 0-9.867 10.072-17.06 24.255-17.06 6.988 0 15.21 1.644 21.788 4.11v12.333c0 2.672-1.645 5.55-4.522 7.81-4.728 5.55-13.772 9.045-23.022 9.045zM844.164-45.475c-3.289 1.439-9.25 3.906-15.005 3.906-5.755 0-10.483-2.878-10.483-10.483v-52.62h22.816v-21.171h-22.816v-34.943h-27.543v34.943h-13.977v21.17h13.977v61.87c0 19.116 12.744 26.516 27.954 26.516 11.716 0 23.227-4.111 30.627-7.4zM914.256-45.475c-3.289 1.439-9.25 3.906-15.005 3.906-5.755 0-10.483-2.878-10.483-10.483v-52.62h22.816v-21.171h-22.816v-34.943h-27.543v34.943h-13.977v21.17h13.977v61.87c0 19.116 12.744 26.516 27.954 26.516 11.717 0 23.227-4.111 30.627-7.4z" style="font-style:normal;font-variant:normal;font-weight:700;font-stretch:normal;font-size:205.54631042px;font-family:Raleway;-inkscape-font-specification:'Raleway Bold';letter-spacing:-7.79057121px;fill:#0c7cba;fill-opacity:1;stroke-width:71.60500336" transform="translate(23.344 17.101) scale(.09611)"/></g></g></svg>